<svg id="svg8" xmlns="http://www.w3.org/2000/svg" viewBox="0 0 1274.75 473.87"><defs><style>.cls-1{fill:#0060af;}</style></defs><g id="layer1"><path id="path946" class="cls-1" d="M240.82,416.65c-34.59-1.44-71.53-9.56-106.84-23.49-8.24-3.25-20.57-8.62-25.28-11-1.87-1-2-1.17-5.66-9.48A347.19,347.19,0,0,1,73.43,247.43c-.36-7.79-.19-27.57.3-34.51a338.06,338.06,0,0,1,29-116.45c1.3-2.94,2.75-6.1,3.21-7l.82-1.64,6-2.75A331.14,331.14,0,0,1,215.53,57a312.12,312.12,0,0,1,111,7.65c23.55,5.89,45.2,13.66,69.73,25l2,1,2,4.4c17.48,38.18,28.16,78.31,31.44,118.15,3.86,46.82-3.1,94.86-20.46,141.29-4.14,11.07-11.68,28.54-12.71,29.43s-14.68,6.88-24.29,10.61c-6.18,2.39-20,7-26.55,8.92a344.41,344.41,0,0,1-80.08,13.1c-5.29.25-21.61.3-26.84.08Zm29.94-7.78c41.73-2.32,84-12.69,119.67-29.33l2.67-1.24,2.71-6.08c16.21-36.37,25.62-72.54,28.59-109.88,4.15-52.27-5.8-107.26-28.83-159.33l-2.95-6.67L387.44,94q-61.59-28-123.75-31c-7.4-.37-24.93-.2-32.34.3C190.71,66,154.45,74.83,119.22,90.51c-7.45,3.32-6.93,3-7.73,4.8l-2.69,6.06a332.43,332.43,0,0,0-26.42,98.49,272.7,272.7,0,0,0-1.68,33.23A307.23,307.23,0,0,0,84.92,286c4.82,29.37,14.49,61.05,26.54,87l1.21,2.62,2.5,1.17c42.17,19.69,85,30.6,127.2,32.37,6.35.26,21,.11,28.39-.31Zm-32.27-18.93c-.53-.1-.64-.3-.63-1.16,0-2.42,1.63-27.65,1.78-27.79a61.56,61.56,0,0,1,6.39.12c5.75.25,6.34.33,7.57,1a5.2,5.2,0,0,1,2.24,2.2c2.15,3.6,1.36,9.81-1.56,12.24-1.51,1.26-3.32,1.7-7,1.7h-3.16l-.17,2.06c-.1,1.14-.26,3.82-.36,6l-.19,3.9-2.15,0c-1.18,0-2.43-.09-2.78-.16Zm10.94-16.48c1.37-.69,2-2,2-4.39,0-1.56-.12-2-.64-2.64-.71-.83-2.18-1.26-4.36-1.27-1.15,0-1.49.09-1.6.49s-.22,2.18-.32,4.24l-.19,3.74,1.08.12c2.34.24,3.1.19,4.05-.29Zm30.94,14.91c-.35-2-3.84-28.13-3.76-28.18s2.62-.42,5.73-.86c6.32-.89,8.09-.79,9.72.59s2.14,3,2.14,6.08c0,2.32-.09,2.85-.64,3.74a6.14,6.14,0,0,1-1.54,1.62l-.9.57.83.18c.46.1,1,.25,1.29.32.85.23,2.48,2.15,2.94,3.47.63,1.83.88,6.17.42,7.59a6,6,0,0,1-2.86,3.55c-.76.39-3,.86-6.69,1.41-3.06.46-5.78.83-6,.84s-.54-.3-.64-.92Zm8.58-4.58a3.65,3.65,0,0,0,1.55-1.13c1.19-1.61.36-6.42-1.27-7.3-.58-.31-4.65-.21-5,.12-.11.11,1,7.88,1.21,8.63.12.39,1.75.24,3.49-.33Zm-1.76-13.68a3.07,3.07,0,0,0,1.34-1.23,6.06,6.06,0,0,0,0-4.58c-.73-1.47-1.51-1.74-4-1.37-2,.3-2.05.32-1.91,1.05.08.41.29,2,.46,3.44s.38,2.87.44,3.07c.13.44,2.23.22,3.7-.38Zm-69.41,18.64a12.59,12.59,0,0,1-5.76-2.07c-2.81-2.33-3-4.94-1.21-18.9.68-5.34,1.3-9.79,1.39-9.88a31.84,31.84,0,0,1,5.53.57c.05,0-.49,4.59-1.2,10.12s-1.28,10.85-1.28,11.84c0,1.61.09,1.9.81,2.61a4.11,4.11,0,0,0,5.52.09c1.11-1.12,1.43-2.71,2.74-13.68l1.2-10,1.72.18c.94.09,2.23.25,2.86.34l1.14.15-1.34,10.7c-.82,6.6-1.56,11.44-1.93,12.63a7.54,7.54,0,0,1-3.88,4.8,13.36,13.36,0,0,1-6.31.53Zm-22.4-3.39-2.78-.75.17-1.72c.09-.94.42-3.05.73-4.68.77-4,.74-4.69-.24-5.67-.81-.82-1.95-1.24-4.3-1.57l-1.29-.19-1.23,6.06c-.67,3.33-1.26,6.1-1.29,6.15a55.24,55.24,0,0,1-5.68-1.18c-.1-.1,6.05-28.61,6.21-28.77s11.54,2.46,13,3.07a6.67,6.67,0,0,1,3.64,4,14.41,14.41,0,0,1-.46,6.43c-.55,1.89-2.15,3.58-3.64,3.86l-1,.2,1.12.82c1.57,1.14,1.64,1.81.74,6.75a23.41,23.41,0,0,0-.6,6.1,4.68,4.68,0,0,1,0,1.89c-.11,0-1.45-.37-3-.79Zm.27-18.82a7.68,7.68,0,0,0,1.52-4.35,2.92,2.92,0,0,0-1.45-2.65,23,23,0,0,0-5.19-1.15c-.17.17-1.79,7.74-1.68,7.85a18.05,18.05,0,0,0,2,.63c2.34.64,3.87.54,4.78-.33ZM310.4,384.32c-1.86-.6-3.64-2.66-4.6-5.32a74.45,74.45,0,0,1-2.9-15c-.21-4.28.19-5.66,2.22-7.49a10.34,10.34,0,0,1,7.13-2.43c3.77,0,6.07,1.84,7.26,5.79a17,17,0,0,1,.53,2c0,.35-4.84,1.35-5.09,1a9,9,0,0,1-.66-1.53c-.92-2.52-2.39-3.46-4.21-2.69-1.29.54-1.94,1.78-1.94,3.7a102.42,102.42,0,0,0,2.91,15c.8,1.86,1.64,2.56,3.27,2.72q3.63.36,2.88-4.85c-.14-1-.25-1.89-.26-2s5-1.41,5.27-1.17a22.14,22.14,0,0,1,.28,2.93,11.55,11.55,0,0,1-.3,4.46,7,7,0,0,1-4.28,4.56,15.7,15.7,0,0,1-7.51.31Zm20.27-5.73c-.36-3.95-1.62-26.52-1.53-27.38s.13-.92,3.41-1.9a23.89,23.89,0,0,1,3.43-.89c.63.64,14.57,25.94,14.39,26.11a13.3,13.3,0,0,1-2.33.84c-1.14.34-2.24.68-2.43.75s-1-1.09-2-3a17.74,17.74,0,0,0-2-3.3,14.05,14.05,0,0,0-3.13.69l-2.79.81,0,1.4c0,.78.12,2.52.25,3.87l.23,2.47-1.94.57c-3.76,1.11-3.4,1.21-3.6-1Zm8.61-13.39a49.1,49.1,0,0,0-2.74-6.15,42.11,42.11,0,0,0-2.93-5.54c0,.57,1.12,11.62,1.28,12.4l.13.62,2-.56a10.8,10.8,0,0,0,2.22-.77Zm-171.9,13.59c-1.83-.53-1.87-.6-1.43-2.55l.23-1-1,.89c-2.05,1.81-4.59,1.93-7.75.37-5-2.5-5.46-5.93-2.19-17.49,2.11-7.44,4-10.56,6.87-11.43s8.4.33,10.89,2.52a6,6,0,0,1,2.14,4.06c.25,1.5-.16,5.58-.55,5.58a5.46,5.46,0,0,1-1-.26c-.45-.14-1.52-.46-2.39-.7l-1.57-.44.27-1.64a3.67,3.67,0,0,0-.22-2.7,4.57,4.57,0,0,0-3.73-2.2,4.48,4.48,0,0,0-3.24,2.13,125.1,125.1,0,0,0-4.12,14.77,4.84,4.84,0,0,0,.29,2.48,3.62,3.62,0,0,0,5.45,1.49,12,12,0,0,0,2.78-5.14c.18-.86.17-.87-1.46-1.23a17.27,17.27,0,0,1-1.8-.47c-.26-.15.93-4.38,1.23-4.38.86,0,8.41,2.68,8.31,3s-1,3.61-2.06,7.63-2,7.3-2.09,7.28l-1.83-.53Zm57.56-51.2a19.79,19.79,0,0,0-5-8.1A31.66,31.66,0,0,0,197.6,310a35.12,35.12,0,0,0-8.19,1c-11.57,2.31-18.41,3.13-26.27,3.15-6.27,0-7.49-.13-11.58-1.46a32.79,32.79,0,0,1-13.43-8.59c-5.89-5.92-9.38-12.59-10.19-19.48a61.24,61.24,0,0,1,1.74-20.43c1.18-3.83,2.94-7.36,4.58-9.15l.57-.63.79,1.24c1.87,3,5,5.53,9.42,7.82,3.4,1.74,7,2.93,15.48,5.1,33,8.47,48.13,15.69,58.07,27.69a51.72,51.72,0,0,1,12.12,30.05l.16,3.34h-5.31l-.62-2.06Zm12.06.23c0-4.69-1.71-13.14-3.81-18.76A68.7,68.7,0,0,0,224.4,293c-11.09-14.52-26.2-22.15-62.39-31.51-3.73-1-7.67-2.07-8.76-2.46-11.76-4.25-19.89-14.31-22.35-27.64a56.94,56.94,0,0,1,0-15,49.78,49.78,0,0,1,12.83-25.59c7.68-8,16.91-12,30.83-13.33,12-1.19,25.9,5.54,38.36,18.58,14,14.69,23.79,34.56,27.37,55.82,1.55,9.19,1.58,10.15,1.73,45.25l.13,32.59H237v-1.83Zm10.91.63c-.08-.67-.22-12.33-.3-25.92-.21-34-.57-42.59-2.3-53.82a117.37,117.37,0,0,0-5.66-22.54,105.11,105.11,0,0,0-13.84-24.89c-.93-1.17-4.18-4.75-7.22-7.95s-6.64-7.1-8-8.67c-11.49-13.2-16.81-26-16.81-40.45,0-15.85,5.29-29.5,15.37-39.62,16.05-16.13,42.54-21,65.14-12a52.62,52.62,0,0,1,28.08,25.67c3.83,7.86,5.55,15.85,5.55,25.84a50.57,50.57,0,0,1-5.49,24.14c-3.54,7.3-8.66,14.1-17.85,23.72-6.51,6.82-8.34,8.91-10.78,12.35-12,17-17.69,34.84-19,59.93-.16,3-.28,18.91-.28,35.43v30h-6.47Zm11.77-30.25c.1-19.25.28-32.94.47-35.29a118.32,118.32,0,0,1,7-31.81c10.35-27.33,31-48.82,51.22-53.28,7.26-1.6,20.76.65,29.11,4.87,11.29,5.7,20.18,17.93,23.17,31.89a53.82,53.82,0,0,1,.31,16.38c-2.24,13.1-9.84,23-21.22,27.62-1.33.54-5.85,1.87-10,2.95-38.27,9.88-53.07,17.78-63.79,34A68,68,0,0,0,267,317a81,81,0,0,0-1.44,11.34v1.35h-6ZM270.9,328a59.71,59.71,0,0,1,1.57-10.83,53.11,53.11,0,0,1,24-32.31c9.7-5.86,22.1-10.36,45.69-16.56,4.67-1.23,9.31-2.55,10.32-2.93,6.18-2.34,11.7-6.28,13.75-9.79l.74-1.26.67.81C371.76,260,374,268.54,374,279c0,7-.58,10-2.86,14.76-4.67,9.72-13.42,17.15-23.11,19.64-6.78,1.74-18.87,1-34.79-2.21-6.6-1.32-10.29-1.49-14.27-.67-11.11,2.3-19.71,9-22.33,17.54l-.51,1.63H270.9l0-1.63Zm588.79,62c-.63-.06-3-.25-5.37-.41-21.33-1.57-42.13-7.45-58.19-16.44-31.27-17.52-50.66-47.34-55.5-85.37-5.62-44.13,11.09-94,44.47-132.76A190,190,0,0,1,906.69,90c11.49-1.43,26.54-1.92,32.18-1A100,100,0,0,1,953,92.53c1.81.61,3.38,1.11,3.49,1.11a63.22,63.22,0,0,0,4-5l3.84-4.94L967,85.13c47.81,25.37,58.25,30.94,58.32,31.16s-43.5,80-44,80.55c-.13.13-1.55-.78-3.15-2-16.1-12.46-33.91-19.56-52.92-21.1a133.34,133.34,0,0,0-20.34.43c-20.54,2.46-37.8,10.47-50.84,23.59a81.16,81.16,0,0,0-22.21,43.44,86.85,86.85,0,0,0-.56,17.66c2.05,17.5,10.88,32.19,25.08,41.74a71,71,0,0,0,24.91,9.89c7.12,1.4,10.37,1.69,19,1.7s10.92-.23,18.28-2c14.8-3.5,34.48-11.83,45.87-19.42l2.44-1.62-.78,1.72c-3.83,8.48-42.75,91.54-43,91.78a21.43,21.43,0,0,1-4,1.05c-2,.4-7,1.44-11,2.31-16.32,3.48-19.94,3.89-35.41,4-6.45.05-12.23,0-12.85,0Zm-378.63-9.56c0-.19,12-46.81,26.63-103.59l26.62-103.24-2.69-.18c-1.48-.1-6.35-.2-10.82-.22a80.21,80.21,0,0,1-8.11-.25c0-.11,10-19.64,22.26-43.38l22.24-43.17,61.57-.08c62.21-.08,68.45,0,75.76,1,32.26,4.22,52.77,22.08,57.56,50.12a87.91,87.91,0,0,1,.28,18.75C749,182.8,728.37,209,697.29,226l-2.24,1.23,1,.43c7.58,3.31,12.44,6.38,16.82,10.63,9.63,9.32,14.33,21,15.67,38.83.42,5.58.18,16.71-.44,20.59q-4.43,27.71-25.71,49.14c-20,20.1-47.68,32-78.12,33.64-8.63.45-143.2.4-143.18-.06ZM623,305.51c12.61-2.17,22.43-9.24,26.11-18.81,2.39-6.18,2.25-12.5-.39-17.77-2.52-5-6.93-8.56-13.08-10.48l-2.49-.78L615,257.58c-10-.05-18.29,0-18.41.13s-3,10.84-6.32,23.81-6.17,23.79-6.26,24.06c-.14.47.84.5,17.78.5,16.67,0,18.16,0,21.25-.57Zm19.62-100.36c14.3-2.55,22.2-10.78,23.79-24.79.59-5.26-.46-9.06-3.29-11.9a14,14,0,0,0-7.09-3.85c-2.13-.58-3.23-.63-19.15-.9-9.92-.17-17-.18-17.14,0s-9.61,41.18-9.61,41.92c0,.18,5.16.24,14.9.16,12.3-.1,15.37-.21,17.59-.6Zm303,167.32C961.15,342,1047.38,170.8,1047.38,170.59s-4.89-.29-11.82-.34l-11.83-.07,22.66-41.89,22.66-41.89,69.78-.08,69.78-.07.18,2.63c.09,1.45,2.9,67,6.23,145.63s6.1,143.73,6.14,144.63l.08,1.63h-93.36V330.22h-64l-10.48,25.21-10.49,25.2-50.73.07-50.72.08,4.21-8.31Zm182.49-115.6c0-2.85-.19-19.05-.42-36s-.41-33.88-.42-37.62c0-4.11-.1-6.7-.26-6.53s-35.55,83.85-35.82,84.83c-.14.47.87.5,18.39.5h18.54l0-5.19Z"/></g></svg>